<?xml version="1.0" encoding="UTF-8"?><svg id="CCRES" xmlns="http://www.w3.org/2000/svg" width="4000" height="4000" xmlns:xlink="http://www.w3.org/1999/xlink" viewBox="0 0 400 400"><defs><linearGradient id="linear-gradient" x1="362.54851" y1="177.3668" x2="46.64571" y2="179.53421" gradientUnits="userSpaceOnUse"><stop offset=".20426" stop-color="#010025"/><stop offset=".71885" stop-color="#2398aa"/><stop offset="1" stop-color="#8cdecd"/></linearGradient><linearGradient id="linear-gradient-2" x1="300.757" y1="222.96212" x2="300.757" y2="108.61556" gradientUnits="userSpaceOnUse"><stop offset="0" stop-color="#010025"/><stop offset=".68843" stop-color="#010025" stop-opacity=".97"/><stop offset="1" stop-color="#010025" stop-opacity="0"/></linearGradient></defs><path d="M48.58388,210.71985c19.70529-21.20361,44.03666-38.30798,70.84746-49.82764,13.38201-5.82397,27.41415-10.14465,41.71117-13.1543,14.31714-2.93494,28.93176-4.43469,43.55365-4.49792,14.6206.02393,29.24411,1.44104,43.56756,4.34802,14.31038,2.9458,28.35221,7.23218,41.75563,13.0033,26.84792,11.4281,51.23608,28.44788,71.01102,49.58667l-2.41978,2.42639c-20.88768-19.38293-45.09612-34.91919-71.34515-45.33228-13.12766-5.17261-26.70084-9.19714-40.55159-11.78943-13.83729-2.63306-27.91916-3.9928-42.00168-3.92017-14.08096.00598-28.16054,1.38745-41.98297,4.09973-13.84298,2.63403-27.39473,6.72534-40.50508,11.93799-26.20882,10.50818-50.36642,26.11157-71.21383,45.53943l-2.42641-2.4198Z" fill="url(#linear-gradient)"/><path d="M67.09766,274.35156l-5.41162-12.9043h-20.0542l-5.37598,12.9043h-8.17041l19.52393-44.89062h8.31152l19.45312,44.89062h-8.27637ZM59.59912,255.63672l-5.23438-12.78223c-.16553-.46875-.41895-1.16699-.76025-2.09473-.34229-.92773-.68994-1.88574-1.04346-2.87402-.354-.98926-.64893-1.80957-.88428-2.46191-.23633.83594-.51318,1.74316-.83105,2.72168-.31836.97852-.62549,1.89062-.91992,2.73633-.29492.84668-.53662,1.50391-.7251,1.97266l-5.27002,12.78223h15.66846Z" fill="#010025"/><path d="M124.91309,234.78125c-2.59424,0-4.90479.39746-6.93262,1.19238-2.02832.7959-3.74902,1.94238-5.16406,3.44043-1.41455,1.49902-2.49316,3.31348-3.23584,5.44336-.74316,2.13086-1.11426,4.52148-1.11426,7.1709,0,3.52734.59521,6.57422,1.78613,9.14355,1.19043,2.56836,2.99414,4.5459,5.41162,5.93262,2.4165,1.38672,5.46436,2.0791,9.14258,2.0791,2.21631,0,4.35596-.17871,6.41943-.53516,2.06299-.35645,4.16748-.83008,6.31348-1.42188v5.74902c-2.02832.69336-4.10889,1.19824-6.24268,1.51367-2.13428.31543-4.604.47363-7.40967.47363-5.28223,0-9.66797-.94727-13.15723-2.84375-3.49023-1.89551-6.0957-4.56152-7.81689-7.99609-1.72119-3.43555-2.58154-7.4873-2.58154-12.15625,0-3.38379.54199-6.47754,1.62695-9.28027,1.08398-2.80273,2.67041-5.22949,4.75684-7.27832,2.08691-2.04883,4.65674-3.62793,7.71045-4.74023,3.05371-1.11035,6.56104-1.66602,10.52246-1.66602,2.59375,0,5.13428.24414,7.62207.7334,2.4873.48926,4.78027,1.18262,6.87939,2.08008l-2.79443,5.5957c-1.76807-.71289-3.63135-1.33008-5.58838-1.84961-1.95703-.52051-4.00879-.78027-6.15381-.78027Z" fill="#010025"/><path d="M186.58398,274.35156h-7.85205v-38.92773h-15.45654v-5.78027h38.72949v5.78027h-15.4209v38.92773Z" fill="#010025"/><path d="M244.78906,229.64355c4.4082,0,8.05078.46973,10.92773,1.40723s5.02344,2.35449,6.4375,4.25098c1.41602,1.89551,2.12305,4.30078,2.12305,7.2168,0,2.2627-.47852,4.17383-1.43359,5.7334s-2.21094,2.84375-3.76562,3.85254c-1.55664,1.00977-3.21875,1.7998-4.98828,2.37012l14.53711,19.87695h-8.87695l-12.52148-18.10352h-8.98438v18.10352h-7.81641v-44.70801h14.36133ZM244.29297,235.33203h-6.04883v15.32031h6.50977c4.00781,0,6.93164-.66797,8.77148-2.00293,1.83789-1.33496,2.75781-3.29785,2.75781-5.88672,0-2.69141-.97852-4.60254-2.93555-5.7334-1.95703-1.13184-4.97461-1.69727-9.05469-1.69727Z" fill="#010025"/><path d="M296.83789,274.35156v-44.70801h7.81641v44.70801h-7.81641Z" fill="#010025"/><path d="M368.66016,262.27246c0,2.65039-.75488,4.92383-2.26367,6.81934-1.50879,1.89648-3.64844,3.34863-6.41895,4.35742-2.77148,1.00977-6.07812,1.51367-9.9209,1.51367-1.88672,0-3.69629-.08691-5.42969-.25977-1.7334-.17383-3.34863-.43262-4.8457-.7793s-2.85938-.76465-4.08496-1.25391v-6.3916c2.02734.75488,4.32617,1.4375,6.89746,2.04883,2.56934.61133,5.22168.91797,7.95801.91797,2.28613,0,4.20215-.26465,5.74707-.7959,1.54395-.5293,2.69922-1.28418,3.46582-2.2627s1.14941-2.14062,1.14941-3.48535c0-1.38672-.40625-2.54883-1.21973-3.48633s-2.06934-1.80469-3.7666-2.59961c-1.69824-.79492-3.87891-1.64062-6.54395-2.53809-1.83887-.61133-3.54883-1.2998-5.12793-2.06445-1.58008-.76367-2.95996-1.65527-4.13867-2.67578-1.17871-1.01855-2.10449-2.22168-2.77637-3.6084-.67188-1.38574-1.00781-2.99609-1.00781-4.83105,0-2.4873.70703-4.61719,2.12207-6.3916,1.41504-1.77344,3.38965-3.13379,5.9248-4.08203,2.53418-.94824,5.47559-1.42188,8.82422-1.42188,2.73535,0,5.29297.24023,7.6748.71875,2.38184.47949,4.68066,1.14648,6.89746,2.00293l-2.47656,5.50391c-2.05078-.71289-4.08496-1.2998-6.10059-1.75781-2.0166-.45898-4.08496-.68848-6.20703-.68848-1.91016,0-3.52539.25-4.8457.74902-1.32129.5-2.32324,1.19824-3.00684,2.09473-.68359.89746-1.02539,1.95703-1.02539,3.18066,0,1.38672.37109,2.53809,1.11426,3.45508.74219.91797,1.91504,1.75879,3.51855,2.52344s3.69043,1.58496,6.26074,2.46191c2.87695.99902,5.33496,2.05371,7.37402,3.16406,2.04004,1.1123,3.5957,2.44238,4.66895,3.99121,1.07324,1.5498,1.60938,3.50684,1.60938,5.87109Z" fill="#010025"/><line x1="300.757" y1="108.61556" x2="300.757" y2="222.96212" fill="none" stroke="url(#linear-gradient-2)" stroke-width="7.8"/><path d="M157.58203,293.31006c-1.53613,0-2.91699.26367-4.14209.79053s-2.26562,1.28857-3.12305,2.28516c-.85645.99658-1.51367,2.19922-1.9707,3.6084s-.68555,2.99609-.68555,4.76074c0,2.33594.36475,4.36426,1.09473,6.08398.72998,1.7207,1.82178,3.05029,3.27539,3.98975s3.27246,1.40918,5.45605,1.40918c1.24414,0,2.41504-.10498,3.51367-.31396,1.09766-.20996,2.16748-.47314,3.2085-.79053v2.81836c-1.01562.38086-2.08203.66357-3.19922.84717-1.11719.18408-2.44385.27637-3.97998.27637-2.83105,0-5.1958-.58691-7.09375-1.76172-1.89795-1.17383-3.31982-2.83398-4.26562-4.97949s-1.41846-4.67822-1.41846-7.59814c0-2.10742.29541-4.03369.88525-5.77979.59082-1.74512,1.45361-3.25293,2.58984-4.52246s2.5332-2.25,4.18945-2.94238c1.65723-.69141,3.55811-1.0376,5.70361-1.0376,1.40918,0,2.76758.13965,4.0752.41895s2.48828.6792,3.54199,1.19971l-1.29492,2.74219c-.88867-.40625-1.86328-.7583-2.92334-1.05664s-2.20557-.44775-3.43701-.44775Z" fill="#010025"/><path d="M182.14746,293.31006c-1.53613,0-2.91699.26367-4.14209.79053s-2.26562,1.28857-3.12305,2.28516c-.85645.99658-1.51367,2.19922-1.9707,3.6084s-.68555,2.99609-.68555,4.76074c0,2.33594.36475,4.36426,1.09473,6.08398.72998,1.7207,1.82178,3.05029,3.27539,3.98975s3.27246,1.40918,5.45605,1.40918c1.24414,0,2.41504-.10498,3.51367-.31396,1.09766-.20996,2.16748-.47314,3.2085-.79053v2.81836c-1.01562.38086-2.08203.66357-3.19922.84717-1.11719.18408-2.44385.27637-3.97998.27637-2.83105,0-5.1958-.58691-7.09375-1.76172-1.89795-1.17383-3.31982-2.83398-4.26562-4.97949s-1.41846-4.67822-1.41846-7.59814c0-2.10742.29541-4.03369.88525-5.77979.59082-1.74512,1.45361-3.25293,2.58984-4.52246s2.5332-2.25,4.18945-2.94238c1.65723-.69141,3.55811-1.0376,5.70361-1.0376,1.40918,0,2.76758.13965,4.0752.41895s2.48828.6792,3.54199,1.19971l-1.29492,2.74219c-.88867-.40625-1.86328-.7583-2.92334-1.05664s-2.20557-.44775-3.43701-.44775Z" fill="#010025"/><path d="M202.33301,290.85352c2.28516,0,4.17334.28271,5.66553.84766,1.49121.56494,2.60547,1.4248,3.3418,2.58008s1.10449,2.62793,1.10449,4.41797c0,1.47266-.2666,2.70117-.7998,3.68457-.5332.98438-1.23145,1.78076-2.09473,2.39014s-1.78369,1.0791-2.76123,1.40918l7.63623,12.51123h-3.77051l-6.81738-11.61621h-5.78906v11.61621h-3.2373v-27.84082h7.52197ZM202.14258,293.65283h-4.09424v10.68311h4.41797c2.27246,0,3.94482-.46338,5.01758-1.39014s1.60938-2.2915,1.60938-4.09424c0-1.8916-.56836-3.23096-1.7041-4.01807-1.13672-.78711-2.88525-1.18066-5.24658-1.18066Z" fill="#010025"/><path d="M234.38232,318.69434h-15.50098v-27.84082h15.50098v2.85645h-12.26367v9.00732h11.55908v2.81836h-11.55908v10.30225h12.26367v2.85645Z" fill="#010025"/><path d="M256.2627,311.28662c0,1.65039-.40967,3.05615-1.22803,4.21826-.81934,1.16113-1.96484,2.04688-3.4375,2.65625s-3.20557.91406-5.19873.91406c-1.05371,0-2.05029-.05078-2.98975-.15234s-1.80273-.24756-2.58984-.43799-1.479-.42529-2.07568-.70459v-3.104c.95215.39355,2.11377.75879,3.48486,1.09521s2.80566.50439,4.30371.50439c1.39648,0,2.57715-.18701,3.54199-.56201.96484-.37402,1.69775-.91406,2.19922-1.61816.50146-.70508.75244-1.55225.75244-2.54248,0-.95215-.20947-1.74854-.62842-2.39014-.41895-.64062-1.11426-1.22461-2.08496-1.75195-.97168-.52637-2.29492-1.08838-3.9707-1.68506-1.18066-.41895-2.22168-.87891-3.12305-1.38037s-1.65674-1.06982-2.26611-1.70459-1.06982-1.37109-1.38037-2.20898c-.31152-.83789-.4668-1.79639-.4668-2.87549,0-1.48535.37744-2.75781,1.13281-3.81836.75537-1.05957,1.80273-1.87207,3.14258-2.4375,1.33887-.56445,2.87842-.84717,4.61768-.84717,1.48535,0,2.85938.13965,4.12256.41895s2.42188.65381,3.47559,1.12354l-1.00928,2.78027c-1.00293-.41895-2.06592-.76807-3.18994-1.04736-1.12305-.2793-2.28174-.41895-3.4751-.41895s-2.19971.1748-3.01807.52393c-.81934.34912-1.44434.84082-1.87598,1.47559s-.64746,1.39014-.64746,2.26611c0,.97754.20605,1.79004.61914,2.4375.41211.64746,1.07227,1.22217,1.98047,1.72314.90723.50195,2.11035,1.02539,3.6084,1.57129,1.6377.59668,3.02783,1.22852,4.17041,1.89453,1.14258.66699,2.01221,1.47949,2.60889,2.4375.59668.95898.89502,2.17432.89502,3.64697Z" fill="#010025"/></svg>